<svg width="19" height="19" viewBox="0 0 19 19" fill="none" xmlns="http://www.w3.org/2000/svg">
<path fill-rule="evenodd" clip-rule="evenodd" d="M14.31 12.9099L17.71 16.2999C17.8993 16.4877 18.0058 16.7432 18.0058 17.0099C18.0058 17.2765 17.8993 17.5321 17.71 17.7199C17.5222 17.9092 17.2666 18.0157 17 18.0157C16.7334 18.0157 16.4778 17.9092 16.29 17.7199L12.9 14.3199C11.5025 15.4169 9.77666 16.0121 8 16.0099C3.58172 16.0099 0 12.4282 0 8.00989C0 3.59161 3.58172 0.0098877 8 0.0098877C12.4183 0.0098877 16 3.59161 16 8.00989C16.0022 9.78654 15.407 11.5123 14.31 12.9099ZM8 2.00989C4.68629 2.00989 2 4.69618 2 8.00989C2 11.3236 4.68629 14.0099 8 14.0099C11.3137 14.0099 14 11.3236 14 8.00989C14 4.69618 11.3137 2.00989 8 2.00989Z" fill="#212B36"/>
</svg>
