<svg width="9" height="16" viewBox="0 0 9 16" fill="none" xmlns="http://www.w3.org/2000/svg">
<path d="M1.99981 15.0098C1.76616 15.0103 1.53972 14.9289 1.35981 14.7798C1.1553 14.6103 1.02666 14.3663 1.00227 14.1018C0.977884 13.8373 1.05975 13.5739 1.22981 13.3698L5.70981 8.00983L1.38981 2.63983C1.22204 2.43324 1.14354 2.16829 1.17169 1.90365C1.19985 1.63901 1.33233 1.39651 1.53981 1.22983C1.74898 1.04579 2.02544 0.957357 2.30258 0.985831C2.57973 1.01431 2.83243 1.15711 2.99981 1.37983L7.82981 7.37983C8.13313 7.74883 8.13313 8.28083 7.82981 8.64983L2.82981 14.6498C2.62635 14.8953 2.31805 15.029 1.99981 15.0098Z" fill="#212B36"/>
</svg>
